<?xml version="1.0" encoding="utf-8"?>
<!-- Generator: Adobe Illustrator 21.0.0, SVG Export Plug-In . SVG Version: 6.00 Build 0)  -->
<svg version="1.1" id="图层_1" xmlns="http://www.w3.org/2000/svg" xmlns:xlink="http://www.w3.org/1999/xlink" x="0px" y="0px"
	 viewBox="0 0 24 24" style="enable-background:new 0 0 24 24;" xml:space="preserve">
<style type="text/css">
	.st0{fill:#FFFFFF;}
	.st1{fill:none;}
	.st2{fill:#00C843;}
	.st3{fill:url(#SVGID_1_);}
	.st4{fill:#DE1000;}
	.st5{fill:#F4DC00;}
	.st6{fill:url(#SVGID_2_);}
</style>
<g id="图层_1_1_">
	<rect class="st0" width="24" height="24"/>
	<g>
		<path class="st1" d="M8,16h12V4H8V16z M10,6h8v2h-8V6z M10,9h8v2h-8V9z M10,12h4v2h-4V12z"/>
		<rect x="10" y="6" class="st2" width="8" height="2"/>
		
			<linearGradient id="SVGID_1_" gradientUnits="userSpaceOnUse" x1="2.1779" y1="764.9161" x2="11.1154" y2="754.7286" gradientTransform="matrix(1 0 0 1 0 -742)">
			<stop  offset="0.1705" style="stop-color:#030029"/>
			<stop  offset="0.9517" style="stop-color:#AF15FF"/>
		</linearGradient>
		<path class="st3" d="M4,6H2v14c0,1.1,0.9,2,2,2h14v-2H4V6z"/>
		<rect x="10" y="12" class="st4" width="4" height="2"/>
		<rect x="10" y="9" class="st5" width="8" height="2"/>
		
			<linearGradient id="SVGID_2_" gradientUnits="userSpaceOnUse" x1="4.0063" y1="761.9344" x2="17.6938" y2="749.2469" gradientTransform="matrix(1 0 0 1 0 -742)">
			<stop  offset="0" style="stop-color:#0D007F"/>
			<stop  offset="0.9913" style="stop-color:#00C5D4"/>
		</linearGradient>
		<path class="st6" d="M20.4,2.3h-12c-1.1,0-2,0.9-2,2v12c0,1.1,0.9,2,2,2h12c1.1,0,2-0.9,2-2v-12C22.4,3.2,21.5,2.3,20.4,2.3z
			 M20.4,16.3h-12v-12h12V16.3z"/>
	</g>
</g>
</svg>
